<svg version="1.1" xmlns="http://www.w3.org/2000/svg" viewBox="0 0 1316.0673021587172 322.03599548339844" width="1316.0673021587172" height="322.03599548339844">
  <!-- svg-source:excalidraw -->
  
  <defs>
    <style>
      @font-face {
        font-family: "Virgil";
        src: url("https://excalidraw.com/Virgil.woff2");
      }
      @font-face {
        font-family: "Cascadia";
        src: url("https://excalidraw.com/Cascadia.woff2");
      }
    </style>
  </defs>
  <rect x="0" y="0" width="1316.0673021587172" height="322.03599548339844" fill="#ffffff"></rect><g transform="translate(10 10) rotate(0 126 20.5)"><text x="0" y="32" font-family="Helvetica, Segoe UI Emoji" font-size="36px" fill="#000000" text-anchor="start" style="white-space: pre;" direction="ltr">Image uploader</text></g><g stroke-linecap="round" transform="translate(21.26129150390625 136.36026000976562) rotate(0 106.98204040527332 72.07202911376953)"><path d="M0 0 C54.43 0, 108.86 0, 213.96 0 M0 0 C44.29 0, 88.58 0, 213.96 0 M213.96 0 C213.96 34.85, 213.96 69.71, 213.96 144.14 M213.96 0 C213.96 30.08, 213.96 60.15, 213.96 144.14 M213.96 144.14 C134.42 144.14, 54.88 144.14, 0 144.14 M213.96 144.14 C169.92 144.14, 125.88 144.14, 0 144.14 M0 144.14 C0 111.7, 0 79.26, 0 0 M0 144.14 C0 89.15, 0 34.15, 0 0" stroke="#000000" stroke-width="1" fill="none"></path></g><g transform="translate(81.24333190917957 187.93228912353516) rotate(0 47 20.5)"><text x="47" y="32" font-family="Helvetica, Segoe UI Emoji" font-size="36px" fill="#000000" text-anchor="middle" style="white-space: pre;" direction="ltr">Client</text></g><g stroke-linecap="round"><g transform="translate(629.3688964843748 223.6668142729759) rotate(0 87.338134765625 -0.5058067429397397)"><path d="M0 0 C29.11 -0.17, 145.56 -0.84, 174.68 -1.01 M0 0 C29.11 -0.17, 145.56 -0.84, 174.68 -1.01" stroke="#000000" stroke-width="1" fill="none"></path></g><g transform="translate(629.3688964843748 223.6668142729759) rotate(0 87.338134765625 -0.5058067429397397)"><path d="M146.55 9.41 C153.55 6.82, 160.55 4.22, 174.68 -1.01 M146.55 9.41 C154.31 6.54, 162.07 3.66, 174.68 -1.01" stroke="#000000" stroke-width="1" fill="none"></path></g><g transform="translate(629.3688964843748 223.6668142729759) rotate(0 87.338134765625 -0.5058067429397397)"><path d="M146.43 -11.11 C153.46 -8.6, 160.49 -6.08, 174.68 -1.01 M146.43 -11.11 C154.22 -8.32, 162.01 -5.54, 174.68 -1.01" stroke="#000000" stroke-width="1" fill="none"></path></g></g><g stroke-linecap="round" transform="translate(802.7929687499998 120.59457397460938) rotate(0 90.09010314941406 85.58563232421875)"><path d="M0 0 C59.59 0, 119.18 0, 180.18 0 M0 0 C46.23 0, 92.45 0, 180.18 0 M180.18 0 C180.18 54.6, 180.18 109.2, 180.18 171.17 M180.18 0 C180.18 49, 180.18 98.01, 180.18 171.17 M180.18 171.17 C112.71 171.17, 45.24 171.17, 0 171.17 M180.18 171.17 C115.73 171.17, 51.27 171.17, 0 171.17 M0 171.17 C0 104.52, 0 37.87, 0 0 M0 171.17 C0 105.05, 0 38.93, 0 0" stroke="#000000" stroke-width="1" fill="none"></path></g><g transform="translate(826.8830718994138 185.68020629882812) rotate(0 66 20.5)"><text x="66" y="32" font-family="Helvetica, Segoe UI Emoji" font-size="36px" fill="#000000" text-anchor="middle" style="white-space: pre;" direction="ltr">Lambda</text></g><g stroke-linecap="round"><g transform="translate(987.3097473704613 215.06775073755716) rotate(0 78.76540012204839 1.652913972337501)"><path d="M0 0 C26.26 0.55, 131.28 2.75, 157.53 3.31 M0 0 C26.26 0.55, 131.28 2.75, 157.53 3.31" stroke="#000000" stroke-width="1" fill="none"></path></g><g transform="translate(987.3097473704613 215.06775073755716) rotate(0 78.76540012204839 1.652913972337501)"><path d="M129.13 12.97 C135 10.97, 140.88 8.97, 157.53 3.31 M129.13 12.97 C136.11 10.6, 143.09 8.22, 157.53 3.31" stroke="#000000" stroke-width="1" fill="none"></path></g><g transform="translate(987.3097473704613 215.06775073755716) rotate(0 78.76540012204839 1.652913972337501)"><path d="M129.56 -7.54 C135.35 -5.3, 141.13 -3.06, 157.53 3.31 M129.56 -7.54 C136.43 -4.88, 143.3 -2.21, 157.53 3.31" stroke="#000000" stroke-width="1" fill="none"></path></g></g><g stroke-linecap="round" transform="translate(1146.3649488178605 120.36917389521659) rotate(0.000058371954038666 79.8511766704205 93.69402800908006)"><path d="M159.7 93.69 C159.7 96.96, 159.56 100.24, 159.26 103.49 C158.97 106.73, 158.54 109.98, 157.96 113.17 C157.38 116.37, 156.65 119.54, 155.79 122.65 C154.93 125.75, 153.93 128.82, 152.8 131.8 C151.67 134.79, 150.4 137.71, 149 140.54 C147.61 143.37, 146.09 146.12, 144.45 148.77 C142.82 151.41, 141.05 153.96, 139.19 156.39 C137.33 158.81, 135.35 161.14, 133.28 163.32 C131.21 165.51, 129.04 167.58, 126.79 169.49 C124.54 171.41, 122.19 173.2, 119.78 174.84 C117.37 176.47, 114.87 177.96, 112.33 179.29 C109.79 180.62, 107.17 181.79, 104.53 182.8 C101.88 183.81, 99.17 184.66, 96.45 185.34 C93.73 186.02, 90.96 186.53, 88.2 186.87 C85.43 187.22, 82.63 187.39, 79.85 187.39 C77.07 187.39, 74.27 187.22, 71.5 186.87 C68.74 186.53, 65.97 186.02, 63.25 185.34 C60.53 184.66, 57.82 183.81, 55.18 182.8 C52.53 181.79, 49.91 180.62, 47.37 179.29 C44.83 177.96, 42.34 176.47, 39.93 174.84 C37.52 173.2, 35.17 171.41, 32.92 169.49 C30.66 167.58, 28.49 165.51, 26.42 163.32 C24.35 161.14, 22.37 158.81, 20.51 156.39 C18.65 153.96, 16.89 151.41, 15.25 148.77 C13.61 146.12, 12.09 143.37, 10.7 140.54 C9.31 137.71, 8.04 134.79, 6.9 131.8 C5.77 128.82, 4.77 125.75, 3.91 122.65 C3.05 119.54, 2.32 116.37, 1.74 113.17 C1.17 109.98, 0.73 106.73, 0.44 103.49 C0.15 100.24, 0 96.96, 0 93.69 C0 90.43, 0.15 87.15, 0.44 83.9 C0.73 80.65, 1.17 77.41, 1.74 74.21 C2.32 71.02, 3.05 67.85, 3.91 64.74 C4.77 61.64, 5.77 58.57, 6.9 55.59 C8.04 52.6, 9.31 49.67, 10.7 46.85 C12.09 44.02, 13.61 41.26, 15.25 38.62 C16.89 35.98, 18.65 33.43, 20.51 31 C22.37 28.57, 24.35 26.25, 26.42 24.07 C28.49 21.88, 30.66 19.81, 32.92 17.89 C35.17 15.98, 37.52 14.18, 39.93 12.55 C42.34 10.92, 44.83 9.43, 47.37 8.1 C49.91 6.77, 52.53 5.59, 55.18 4.59 C57.82 3.58, 60.53 2.73, 63.25 2.05 C65.97 1.37, 68.74 0.85, 71.5 0.51 C74.27 0.17, 77.07 0, 79.85 0 C82.63 0, 85.43 0.17, 88.2 0.51 C90.96 0.85, 93.73 1.37, 96.45 2.05 C99.17 2.73, 101.88 3.58, 104.53 4.59 C107.17 5.59, 109.79 6.77, 112.33 8.1 C114.87 9.43, 117.37 10.92, 119.78 12.55 C122.19 14.18, 124.54 15.98, 126.79 17.89 C129.04 19.81, 131.21 21.88, 133.28 24.07 C135.35 26.25, 137.33 28.57, 139.19 31 C141.05 33.43, 142.82 35.98, 144.45 38.62 C146.09 41.26, 147.61 44.02, 149 46.85 C150.4 49.67, 151.67 52.6, 152.8 55.59 C153.93 58.57, 154.93 61.64, 155.79 64.74 C156.65 67.85, 157.38 71.02, 157.96 74.21 C158.54 77.41, 158.97 80.65, 159.26 83.9 C159.56 87.15, 159.63 92.06, 159.7 93.69 C159.78 95.33, 159.78 92.06, 159.7 93.69" stroke="#000000" stroke-width="1" fill="none"></path></g><g transform="translate(1200.653839111328 197.86026000976562) rotate(0 23 20.5)"><text x="23" y="32" font-family="Helvetica, Segoe UI Emoji" font-size="36px" fill="#000000" text-anchor="middle" style="white-space: pre;" direction="ltr">S3</text></g><g stroke-linecap="round" transform="translate(401.89193725585915 125.09912109375) rotate(0 110.36056518554688 93.46843719482422)"><path d="M0 0 C52.94 0, 105.89 0, 220.72 0 M0 0 C69.53 0, 139.07 0, 220.72 0 M220.72 0 C220.72 53.79, 220.72 107.58, 220.72 186.94 M220.72 0 C220.72 45.92, 220.72 91.84, 220.72 186.94 M220.72 186.94 C155.37 186.94, 90.02 186.94, 0 186.94 M220.72 186.94 C148.02 186.94, 75.32 186.94, 0 186.94 M0 186.94 C0 127.95, 0 68.95, 0 0 M0 186.94 C0 140.03, 0 93.12, 0 0" stroke="#000000" stroke-width="1" fill="none"></path></g><g stroke-linecap="round"><g transform="translate(246.48651123046852 213.70231029901834) rotate(0 73.1982421875 0.8390929006077386)"><path d="M0 0 C24.4 0.28, 122 1.4, 146.4 1.68 M0 0 C24.4 0.28, 122 1.4, 146.4 1.68" stroke="#000000" stroke-width="1" fill="none"></path></g><g transform="translate(246.48651123046852 213.70231029901834) rotate(0 73.1982421875 0.8390929006077386)"><path d="M118.09 11.61 C125.47 9.02, 132.86 6.43, 146.4 1.68 M118.09 11.61 C127.49 8.31, 136.9 5.01, 146.4 1.68" stroke="#000000" stroke-width="1" fill="none"></path></g><g transform="translate(246.48651123046852 213.70231029901834) rotate(0 73.1982421875 0.8390929006077386)"><path d="M118.33 -8.9 C125.65 -6.14, 132.97 -3.38, 146.4 1.68 M118.33 -8.9 C127.65 -5.39, 136.98 -1.87, 146.4 1.68" stroke="#000000" stroke-width="1" fill="none"></path></g></g><g transform="translate(410.252502441406 198.06755828857422) rotate(0 102 20.5)"><text x="102" y="32" font-family="Helvetica, Segoe UI Emoji" font-size="36px" fill="#000000" text-anchor="middle" style="white-space: pre;" direction="ltr">API gateway</text></g></svg>