<svg version="1.1" xmlns="http://www.w3.org/2000/svg" viewBox="0 0 1842.1983947753906 498.6036300659175" width="1842.1983947753906" height="498.6036300659175">
  <!-- svg-source:excalidraw -->
  
  <defs>
    <style>
      @font-face {
        font-family: "Virgil";
        src: url("https://excalidraw.com/Virgil.woff2");
      }
      @font-face {
        font-family: "Cascadia";
        src: url("https://excalidraw.com/Cascadia.woff2");
      }
    </style>
  </defs>
  <rect x="0" y="0" width="1842.1983947753906" height="498.6036300659175" fill="#ffffff"></rect><g stroke-linecap="round" transform="translate(10 193.79520416259766) rotate(0 136 48)"><path d="M0 0 C94.5 0, 188.99 0, 272 0 M0 0 C82.86 0, 165.72 0, 272 0 M272 0 C272 32.07, 272 64.14, 272 96 M272 0 C272 21.84, 272 43.69, 272 96 M272 96 C215.71 96, 159.43 96, 0 96 M272 96 C186.77 96, 101.53 96, 0 96 M0 96 C0 64.61, 0 33.22, 0 0 M0 96 C0 62.07, 0 28.13, 0 0" stroke="#000000" stroke-width="1" fill="none"></path></g><g transform="translate(42 221.29520416259766) rotate(0 104 20.5)"><text x="104" y="32" font-family="Helvetica, Segoe UI Emoji" font-size="36px" fill="#000000" text-anchor="middle" style="white-space: pre;" direction="ltr"> React Client</text></g><g stroke-linecap="round" transform="translate(381.6216278076172 194.68494415283203) rotate(0 109.79732513427734 46)"><path d="M0 0 C55.56 0, 111.12 0, 219.59 0 M0 0 C59 0, 118.01 0, 219.59 0 M219.59 0 C219.59 32.88, 219.59 65.75, 219.59 92 M219.59 0 C219.59 23.01, 219.59 46.03, 219.59 92 M219.59 92 C174.26 92, 128.93 92, 0 92 M219.59 92 C149.63 92, 79.67 92, 0 92 M0 92 C0 72.53, 0 53.06, 0 0 M0 92 C0 61.29, 0 30.59, 0 0" stroke="#000000" stroke-width="1" fill="none"></path></g><g transform="translate(419.41895294189453 199.68494415283203) rotate(0 72 41)"><text x="72" y="32" font-family="Helvetica, Segoe UI Emoji" font-size="36px" fill="#000000" text-anchor="middle" style="white-space: pre;" direction="ltr">API </text><text x="72" y="73" font-family="Helvetica, Segoe UI Emoji" font-size="36px" fill="#000000" text-anchor="middle" style="white-space: pre;" direction="ltr">Gateway</text></g><g stroke-linecap="round"><g transform="translate(290.40550231933594 238.6037826538086) rotate(0 42.22969055175781 0.56304931640625)"><path d="M0 0 C14.08 0.19, 70.38 0.94, 84.46 1.13 M0 0 C14.08 0.19, 70.38 0.94, 84.46 1.13" stroke="#000000" stroke-width="1" fill="none"></path></g><g transform="translate(290.40550231933594 238.6037826538086) rotate(0 42.22969055175781 0.56304931640625)"><path d="M56.13 11.01 C67.46 7.06, 78.78 3.11, 84.46 1.13 M56.13 11.01 C65.14 7.87, 74.14 4.73, 84.46 1.13" stroke="#000000" stroke-width="1" fill="none"></path></g><g transform="translate(290.40550231933594 238.6037826538086) rotate(0 42.22969055175781 0.56304931640625)"><path d="M56.41 -9.51 C67.62 -5.26, 78.83 -1.01, 84.46 1.13 M56.41 -9.51 C65.32 -6.13, 74.24 -2.75, 84.46 1.13" stroke="#000000" stroke-width="1" fill="none"></path></g></g><g stroke-linecap="round" transform="translate(715.502197265625 76.93926239013672) rotate(0 239.5 46)"><path d="M0 0 C162.75 0, 325.51 0, 479 0 M0 0 C166.36 0, 332.73 0, 479 0 M479 0 C479 34.19, 479 68.39, 479 92 M479 0 C479 21.65, 479 43.31, 479 92 M479 92 C291.66 92, 104.32 92, 0 92 M479 92 C292.79 92, 106.57 92, 0 92 M0 92 C0 73.41, 0 54.82, 0 0 M0 92 C0 65.04, 0 38.09, 0 0" stroke="#000000" stroke-width="1" fill="none"></path></g><g transform="translate(745.002197265625 102.43926239013672) rotate(0 210 20.5)"><text x="210" y="32" font-family="Helvetica, Segoe UI Emoji" font-size="36px" fill="#000000" text-anchor="middle" style="white-space: pre;" direction="ltr">POST /myunsplash/image</text></g><g stroke-linecap="round" transform="translate(717.49560546875 209.66448211669922) rotate(0 240 46)"><path d="M0 0 C158.87 0, 317.74 0, 480 0 M0 0 C117.25 0, 234.5 0, 480 0 M480 0 C480 23.96, 480 47.93, 480 92 M480 0 C480 36.72, 480 73.44, 480 92 M480 92 C381.56 92, 283.12 92, 0 92 M480 92 C336.72 92, 193.45 92, 0 92 M0 92 C0 68.65, 0 45.3, 0 0 M0 92 C0 67.06, 0 42.13, 0 0" stroke="#000000" stroke-width="1" fill="none"></path></g><g transform="translate(726.49560546875 235.16448211669922) rotate(0 231 20.5)"><text x="231" y="32" font-family="Helvetica, Segoe UI Emoji" font-size="36px" fill="#000000" text-anchor="middle" style="white-space: pre;" direction="ltr">DELETE /myunsplash/image</text></g><g stroke-linecap="round" transform="translate(684.5497131347656 10) rotate(0 274.2115783691406 239.30181503295876)"><path d="M0 0 C214.15 0, 428.3 0, 548.42 0 M548.42 0 C548.42 189.39, 548.42 378.78, 548.42 478.6 M548.42 478.6 C400.29 478.6, 252.17 478.6, 0 478.6 M0 478.6 C0 361.09, 0 243.58, 0 0" stroke="#000000" stroke-width="1.5" fill="none" stroke-dasharray="8 9"></path></g><g transform="translate(692.4458923339844 11.725410461425781) rotate(0 66 20.5)"><text x="66" y="32" font-family="Helvetica, Segoe UI Emoji" font-size="36px" fill="#000000" text-anchor="middle" style="white-space: pre;" direction="ltr">Lambda</text></g><g stroke-linecap="round"><g transform="translate(610.9463288704326 233.59916730511623) rotate(0 29.23376904898953 0.014731445955249)"><path d="M0 0 C9.74 0, 48.72 0.02, 58.47 0.03 M0 0 C9.74 0, 48.72 0.02, 58.47 0.03" stroke="#000000" stroke-width="1" fill="none"></path></g><g transform="translate(610.9463288704326 233.59916730511623) rotate(0 29.23376904898953 0.014731445955249)"><path d="M30.99 10.01 C37.04 7.82, 43.09 5.62, 58.47 0.03 M30.99 10.01 C41.19 6.31, 51.39 2.6, 58.47 0.03" stroke="#000000" stroke-width="1" fill="none"></path></g><g transform="translate(610.9463288704326 233.59916730511623) rotate(0 29.23376904898953 0.014731445955249)"><path d="M31 -9.98 C37.05 -7.78, 43.1 -5.57, 58.47 0.03 M31 -9.98 C41.2 -6.27, 51.39 -2.55, 58.47 0.03" stroke="#000000" stroke-width="1" fill="none"></path></g></g><g stroke-linecap="round" transform="translate(1320.937255859375 211.5768814086914) rotate(0 138 54.5)"><path d="M0 0 C56.7 0, 113.39 0, 276 0 M0 0 C59.53 0, 119.06 0, 276 0 M276 0 C276 38.46, 276 76.93, 276 109 M276 0 C276 37.06, 276 74.13, 276 109 M276 109 C187.35 109, 98.71 109, 0 109 M276 109 C214.55 109, 153.09 109, 0 109 M0 109 C0 74.11, 0 39.21, 0 0 M0 109 C0 82.85, 0 56.69, 0 0" stroke="#000000" stroke-width="1" fill="none"></path></g><g transform="translate(1365.937255859375 245.5768814086914) rotate(0 93 20.5)"><text x="93" y="32" font-family="Helvetica, Segoe UI Emoji" font-size="36px" fill="#000000" text-anchor="middle" style="white-space: pre;" direction="ltr">DynamoDB</text></g><g stroke-linecap="round"><g transform="translate(1206.115732685831 150.01766367998607) rotate(0 48.51740731037148 40.77652687928298)"><path d="M0 0 C16.17 13.59, 80.86 67.96, 97.03 81.55 M0 0 C16.17 13.59, 80.86 67.96, 97.03 81.55" stroke="#000000" stroke-width="1" fill="none"></path></g><g transform="translate(1206.115732685831 150.01766367998607) rotate(0 48.51740731037148 40.77652687928298)"><path d="M68.85 71.27 C76.64 74.11, 84.42 76.95, 97.03 81.55 M68.85 71.27 C78.68 74.86, 88.5 78.44, 97.03 81.55" stroke="#000000" stroke-width="1" fill="none"></path></g><g transform="translate(1206.115732685831 150.01766367998607) rotate(0 48.51740731037148 40.77652687928298)"><path d="M82.06 55.56 C86.19 62.74, 90.33 69.92, 97.03 81.55 M82.06 55.56 C87.28 64.62, 92.5 73.68, 97.03 81.55" stroke="#000000" stroke-width="1" fill="none"></path></g></g><g stroke-linecap="round"><g transform="translate(1202.1737462877102 273.0577070163463) rotate(0 52.57839870042119 -4.067314817865963)"><path d="M0 0 C17.53 -1.36, 87.63 -6.78, 105.16 -8.13 M0 0 C17.53 -1.36, 87.63 -6.78, 105.16 -8.13" stroke="#000000" stroke-width="1" fill="none"></path></g><g transform="translate(1202.1737462877102 273.0577070163463) rotate(0 52.57839870042119 -4.067314817865963)"><path d="M77.84 4.27 C84.1 1.43, 90.37 -1.42, 105.16 -8.13 M77.84 4.27 C87.42 -0.08, 96.99 -4.43, 105.16 -8.13" stroke="#000000" stroke-width="1" fill="none"></path></g><g transform="translate(1202.1737462877102 273.0577070163463) rotate(0 52.57839870042119 -4.067314817865963)"><path d="M76.26 -16.19 C82.88 -14.34, 89.51 -12.5, 105.16 -8.13 M76.26 -16.19 C86.39 -13.37, 96.52 -10.54, 105.16 -8.13" stroke="#000000" stroke-width="1" fill="none"></path></g></g><g stroke-linecap="round" transform="translate(1638.3998050673367 194.89858527941715) rotate(0 96.83023360890047 117.93191593337315)"><path d="M0 0 C76.22 0, 152.43 0, 193.66 0 M0 0 C65.55 0, 131.1 0, 193.66 0 M193.66 0 C193.66 90.25, 193.66 180.5, 193.66 235.86 M193.66 0 C193.66 75.4, 193.66 150.81, 193.66 235.86 M193.66 235.86 C123.37 235.86, 53.09 235.86, 0 235.86 M193.66 235.86 C135.82 235.86, 77.97 235.86, 0 235.86 M0 235.86 C0 147.9, 0 59.93, 0 0 M0 235.86 C0 176.6, 0 117.34, 0 0" stroke="#000000" stroke-width="1" fill="none"></path></g><g transform="translate(1647.547444997802 205.65721413389247) rotate(0 85.5 90)"><text x="0" y="36" font-family="Helvetica, Segoe UI Emoji" font-size="39.43270072168538px" fill="#000000" text-anchor="start" style="white-space: pre;" direction="ltr">id</text><text x="0" y="81" font-family="Helvetica, Segoe UI Emoji" font-size="39.43270072168538px" fill="#000000" text-anchor="start" style="white-space: pre;" direction="ltr">image-url</text><text x="0" y="126" font-family="Helvetica, Segoe UI Emoji" font-size="39.43270072168538px" fill="#000000" text-anchor="start" style="white-space: pre;" direction="ltr">label</text><text x="0" y="171" font-family="Helvetica, Segoe UI Emoji" font-size="39.43270072168538px" fill="#000000" text-anchor="start" style="white-space: pre;" direction="ltr">password</text></g><g stroke-linecap="round" transform="translate(1638.5379275575897 130.47999572753906) rotate(0 96.83023360890047 32.07113050129283)"><path d="M0 0 C69.83 0, 139.66 0, 193.66 0 M0 0 C72.68 0, 145.35 0, 193.66 0 M193.66 0 C193.66 14.97, 193.66 29.94, 193.66 64.14 M193.66 0 C193.66 21.7, 193.66 43.4, 193.66 64.14 M193.66 64.14 C142.29 64.14, 90.92 64.14, 0 64.14 M193.66 64.14 C140.06 64.14, 86.46 64.14, 0 64.14 M0 64.14 C0 45.01, 0 25.88, 0 0 M0 64.14 C0 44.18, 0 24.21, 0 0" stroke="#000000" stroke-width="1" fill="none"></path></g><g transform="translate(1649.5507225191895 137.8760756782981) rotate(0 54.76763989122969 22.454732355404076)"><text x="0" y="35.909464710808344" font-family="Helvetica, Segoe UI Emoji" font-size="39.43270072168538px" fill="#000000" text-anchor="start" style="white-space: pre;" direction="ltr">image</text></g><g stroke-linecap="round" transform="translate(717.6756591796875 328.04308319091797) rotate(0 240 46)"><path d="M0 0 C102.96 0, 205.91 0, 480 0 M0 0 C189.67 0, 379.35 0, 480 0 M480 0 C480 30.47, 480 60.95, 480 92 M480 0 C480 18.94, 480 37.88, 480 92 M480 92 C290.14 92, 100.28 92, 0 92 M480 92 C369.46 92, 258.91 92, 0 92 M0 92 C0 70.81, 0 49.61, 0 0 M0 92 C0 56.18, 0 20.35, 0 0" stroke="#000000" stroke-width="1" fill="none"></path></g><g transform="translate(750.6756591796875 353.54308319091797) rotate(0 207 20.5)"><text x="207" y="32" font-family="Helvetica, Segoe UI Emoji" font-size="36px" fill="#000000" text-anchor="middle" style="white-space: pre;" direction="ltr">GET /myunsplash/images</text></g><g stroke-linecap="round"><g transform="translate(1204.2351948520677 394.53593739976077) rotate(0 50.48537119186983 -52.75841028089053)"><path d="M0 0 C16.83 -17.59, 84.14 -87.93, 100.97 -105.52 M0 0 C16.83 -17.59, 84.14 -87.93, 100.97 -105.52" stroke="#000000" stroke-width="1" fill="none"></path></g><g transform="translate(1204.2351948520677 394.53593739976077) rotate(0 50.48537119186983 -52.75841028089053)"><path d="M88.89 -78.06 C93.43 -88.36, 97.96 -98.66, 100.97 -105.52 M88.89 -78.06 C93.17 -87.79, 97.45 -97.52, 100.97 -105.52" stroke="#000000" stroke-width="1" fill="none"></path></g><g transform="translate(1204.2351948520677 394.53593739976077) rotate(0 50.48537119186983 -52.75841028089053)"><path d="M74.07 -92.24 C84.16 -97.22, 94.26 -102.2, 100.97 -105.52 M74.07 -92.24 C83.6 -96.95, 93.13 -101.65, 100.97 -105.52" stroke="#000000" stroke-width="1" fill="none"></path></g></g></svg>